<svg viewBox="0 0 150 30" xmlns="http://www.w3.org/2000/svg"><g fill-opacity=".87" fill-rule="evenodd"><path d="m62.93 13.77v16.23h3.75v-9c.79.51 5.61 8.68 6.55 9h2.93c.63-.08 1-.59 1-1.47v-15.28h-4a80 80 0 0 0 .19 8.75c-.39-.15-.3 0-1-1l-2.46-3.7c-2.45-3.53-2.14-4-6.48-4-.4 0-.48.07-.48.44z"/><path d="m131.64 30h3.71l-.16-9c.87.6 4.11 6.34 6.72 9h2.73c.72-.08 1-.37 1-1.33 0-1.91-.3-13.3 0-14a1 1 0 0 1 .72-.66v-.74h-4.42v8.68c-.4-.29-5-7.06-5-7.13a3.51 3.51 0 0 0 -2.68-1.56h-2.45v16.74h-.07z"/><path d="m96.89 13.73v15.27c0 .52.55.74 1.42.89h3.54v-6.89c.64.14.24.07 1 1.1l2.8 4a3.57 3.57 0 0 0 2.84 1.9h4.26c-.15-.51-6.31-9.34-6.71-9.86a17.69 17.69 0 0 0 1.61-1.63c.54-.66 1.11-1 1.65-1.62a11 11 0 0 1 .79-.88l2.21-2.72c-5.2 0-4.26-.67-8.28 3.9a17.87 17.87 0 0 1 -2.17 1.91v-5.8h-4.5c-.35-.01-.46.06-.46.43z"/><path d="m36.88 28.41c-.08 1 .48 1.4 1.74 1.47h9a1.05 1.05 0 0 0 1.11-1v-2.09h-5.91c-.57 0-.87-.15-1-.59v-3.46h5.45v-3.16h-5.41v-3.17h6.83c0-1.68.39-2.87-1-3.17h-10.81z"/><path d="m52.68 29.15c0 .44.56.73 1.11.73h3.69v-16.63h-4.8z"/><path d="m81.1 28.41c-.08 1 .48 1.4 1.74 1.47h8.92a1 1 0 0 0 1.1-1v-2.09h-5.86c-.55 0-.87-.15-1-.59v-3.46h5.44v-3.16h-5.44v-3.17h6.87c0-1.68.4-2.87-.94-3.17h-10.83z"/><path d="m115.13 28.41c-.08 1 .47 1.4 1.73 1.47h8.92a1.06 1.06 0 0 0 1.11-1v-2.09h-5.89c-.55 0-.87-.15-.94-.59v-3.46h5.45v-3.16h-5.51v-3.17h6.87c0-1.68.39-2.87-1-3.17h-10.81v15.16h.07z"/><path d="m18 14.87-.09 14.87h4.79v-7.22h4.19v7.22h4.81v-16.49h-4.77v6c0 .29-.16.44-.48.44h-3.24c-.31 0-.47-.15-.47-.44v-6h-5.61c.01 1.11.87.59.87 1.62z"/><path d="m10.49 10.62 3.4 2.38-1.34 4.33c-1.35.89-2.69 1.77-4 2.65-.48.15-.48-.22-.24-.88l2.21-6.63c-2.21-1.53-4.5-3.08-6.7-4.7-.24-.15-.24-.44.38-.44l8.22.08c.92-2.41 1.71-4.73 2.58-7.09.15-.44.47-.36.63-.06l2.53 7.21h8.36c.24 0 .33.14.09.29l-4.11 2.72h-4.66l-1.26-3.68c-.08-.22-.24-.22-.32 0l-1.34 3.61h-4.35c-.24.06-.24.14-.08.21z"/></g></svg>